<mxfile host="app.diagrams.net" modified="2023-02-13T17:03:09.058Z" agent="5.0 (X11; Linux x86_64) AppleWebKit/537.36 (KHTML, like Gecko) Chrome/109.0.0.0 Safari/537.36" etag="loSwRNv601CD9JyTMsnq" version="20.8.20" type="github">
  <diagram id="C5RBs43oDa-KdzZeNtuy" name="Page-1">
    <mxGraphModel dx="1663" dy="1176" grid="1" gridSize="10" guides="1" tooltips="1" connect="1" arrows="1" fold="1" page="1" pageScale="1" pageWidth="827" pageHeight="1169" math="0" shadow="0">
      <root>
        <mxCell id="WIyWlLk6GJQsqaUBKTNV-0" />
        <mxCell id="WIyWlLk6GJQsqaUBKTNV-1" parent="WIyWlLk6GJQsqaUBKTNV-0" />
        <mxCell id="erDt9PumL7C5PBTXCDJ7-108" value="" style="rounded=1;whiteSpace=wrap;html=1;fillColor=none;dashed=1;container=1;dashPattern=8 8;" vertex="1" parent="WIyWlLk6GJQsqaUBKTNV-1">
          <mxGeometry x="-760" y="1670" width="608.5" height="520" as="geometry">
            <mxRectangle x="-760" y="1670" width="50" height="40" as="alternateBounds" />
          </mxGeometry>
        </mxCell>
        <mxCell id="erDt9PumL7C5PBTXCDJ7-156" value="YES" style="text;strokeColor=none;align=center;fillColor=none;html=1;verticalAlign=middle;whiteSpace=wrap;rounded=0;" vertex="1" parent="erDt9PumL7C5PBTXCDJ7-108">
          <mxGeometry x="172.5" y="20" width="60" height="30" as="geometry" />
        </mxCell>
        <mxCell id="erDt9PumL7C5PBTXCDJ7-157" value="NO" style="text;strokeColor=none;align=center;fillColor=none;html=1;verticalAlign=middle;whiteSpace=wrap;rounded=0;" vertex="1" parent="erDt9PumL7C5PBTXCDJ7-108">
          <mxGeometry x="15" y="99" width="60" height="30" as="geometry" />
        </mxCell>
        <mxCell id="erDt9PumL7C5PBTXCDJ7-162" value="ERROR" style="text;strokeColor=none;align=center;fillColor=none;html=1;verticalAlign=middle;whiteSpace=wrap;rounded=0;" vertex="1" parent="erDt9PumL7C5PBTXCDJ7-108">
          <mxGeometry x="180" y="250" width="60" height="30" as="geometry" />
        </mxCell>
        <mxCell id="erDt9PumL7C5PBTXCDJ7-163" value="SUCCESS" style="text;strokeColor=none;align=center;fillColor=none;html=1;verticalAlign=middle;whiteSpace=wrap;rounded=0;" vertex="1" parent="erDt9PumL7C5PBTXCDJ7-108">
          <mxGeometry x="100" y="310" width="60" height="30" as="geometry" />
        </mxCell>
        <mxCell id="erDt9PumL7C5PBTXCDJ7-33" value="create_shared_rscs()" style="text;strokeColor=none;align=center;fillColor=none;html=1;verticalAlign=middle;whiteSpace=wrap;rounded=0;fontStyle=1" vertex="1" parent="WIyWlLk6GJQsqaUBKTNV-1">
          <mxGeometry x="-533" y="726" width="60" height="30" as="geometry" />
        </mxCell>
        <mxCell id="erDt9PumL7C5PBTXCDJ7-39" style="edgeStyle=orthogonalEdgeStyle;rounded=0;orthogonalLoop=1;jettySize=auto;html=1;entryX=0.5;entryY=0;entryDx=0;entryDy=0;" edge="1" parent="WIyWlLk6GJQsqaUBKTNV-1" source="erDt9PumL7C5PBTXCDJ7-34" target="erDt9PumL7C5PBTXCDJ7-37">
          <mxGeometry relative="1" as="geometry" />
        </mxCell>
        <mxCell id="erDt9PumL7C5PBTXCDJ7-34" value="semget()" style="rounded=1;whiteSpace=wrap;html=1;" vertex="1" parent="WIyWlLk6GJQsqaUBKTNV-1">
          <mxGeometry x="-670" y="932.5" width="80" height="40" as="geometry" />
        </mxCell>
        <mxCell id="erDt9PumL7C5PBTXCDJ7-38" style="edgeStyle=orthogonalEdgeStyle;rounded=0;orthogonalLoop=1;jettySize=auto;html=1;entryX=0.5;entryY=0;entryDx=0;entryDy=0;" edge="1" parent="WIyWlLk6GJQsqaUBKTNV-1" source="erDt9PumL7C5PBTXCDJ7-35" target="erDt9PumL7C5PBTXCDJ7-36">
          <mxGeometry relative="1" as="geometry" />
        </mxCell>
        <mxCell id="erDt9PumL7C5PBTXCDJ7-35" value="shmget()" style="rounded=1;whiteSpace=wrap;html=1;" vertex="1" parent="WIyWlLk6GJQsqaUBKTNV-1">
          <mxGeometry x="-670" y="721" width="80" height="40" as="geometry" />
        </mxCell>
        <mxCell id="erDt9PumL7C5PBTXCDJ7-45" style="edgeStyle=orthogonalEdgeStyle;rounded=0;orthogonalLoop=1;jettySize=auto;html=1;" edge="1" parent="WIyWlLk6GJQsqaUBKTNV-1" source="erDt9PumL7C5PBTXCDJ7-36" target="erDt9PumL7C5PBTXCDJ7-41">
          <mxGeometry relative="1" as="geometry" />
        </mxCell>
        <mxCell id="erDt9PumL7C5PBTXCDJ7-172" style="edgeStyle=orthogonalEdgeStyle;rounded=0;orthogonalLoop=1;jettySize=auto;html=1;" edge="1" parent="WIyWlLk6GJQsqaUBKTNV-1" source="erDt9PumL7C5PBTXCDJ7-36" target="erDt9PumL7C5PBTXCDJ7-34">
          <mxGeometry relative="1" as="geometry" />
        </mxCell>
        <mxCell id="erDt9PumL7C5PBTXCDJ7-36" value="ret shmget ?" style="rhombus;whiteSpace=wrap;html=1;" vertex="1" parent="WIyWlLk6GJQsqaUBKTNV-1">
          <mxGeometry x="-670" y="810" width="80" height="80" as="geometry" />
        </mxCell>
        <mxCell id="erDt9PumL7C5PBTXCDJ7-51" style="edgeStyle=orthogonalEdgeStyle;rounded=0;orthogonalLoop=1;jettySize=auto;html=1;" edge="1" parent="WIyWlLk6GJQsqaUBKTNV-1" source="erDt9PumL7C5PBTXCDJ7-37" target="erDt9PumL7C5PBTXCDJ7-47">
          <mxGeometry relative="1" as="geometry" />
        </mxCell>
        <mxCell id="erDt9PumL7C5PBTXCDJ7-176" style="edgeStyle=orthogonalEdgeStyle;rounded=0;orthogonalLoop=1;jettySize=auto;html=1;" edge="1" parent="WIyWlLk6GJQsqaUBKTNV-1" source="erDt9PumL7C5PBTXCDJ7-37">
          <mxGeometry relative="1" as="geometry">
            <mxPoint x="-630" y="1132.5" as="targetPoint" />
          </mxGeometry>
        </mxCell>
        <mxCell id="erDt9PumL7C5PBTXCDJ7-37" value="ret semget ?" style="rhombus;whiteSpace=wrap;html=1;" vertex="1" parent="WIyWlLk6GJQsqaUBKTNV-1">
          <mxGeometry x="-670" y="1012.5" width="80" height="80" as="geometry" />
        </mxCell>
        <mxCell id="erDt9PumL7C5PBTXCDJ7-40" style="edgeStyle=orthogonalEdgeStyle;rounded=0;orthogonalLoop=1;jettySize=auto;html=1;" edge="1" parent="WIyWlLk6GJQsqaUBKTNV-1" source="erDt9PumL7C5PBTXCDJ7-41" target="erDt9PumL7C5PBTXCDJ7-43">
          <mxGeometry relative="1" as="geometry" />
        </mxCell>
        <mxCell id="erDt9PumL7C5PBTXCDJ7-41" value="log_syserr(&quot;shmget&quot;)" style="rounded=1;whiteSpace=wrap;html=1;" vertex="1" parent="WIyWlLk6GJQsqaUBKTNV-1">
          <mxGeometry x="-530" y="830" width="110" height="40" as="geometry" />
        </mxCell>
        <mxCell id="erDt9PumL7C5PBTXCDJ7-42" style="edgeStyle=orthogonalEdgeStyle;rounded=0;orthogonalLoop=1;jettySize=auto;html=1;entryX=0;entryY=0.5;entryDx=0;entryDy=0;" edge="1" parent="WIyWlLk6GJQsqaUBKTNV-1" source="erDt9PumL7C5PBTXCDJ7-43" target="erDt9PumL7C5PBTXCDJ7-44">
          <mxGeometry relative="1" as="geometry" />
        </mxCell>
        <mxCell id="erDt9PumL7C5PBTXCDJ7-43" value="ret error" style="rounded=1;whiteSpace=wrap;html=1;" vertex="1" parent="WIyWlLk6GJQsqaUBKTNV-1">
          <mxGeometry x="-361.5" y="830" width="60" height="40" as="geometry" />
        </mxCell>
        <mxCell id="erDt9PumL7C5PBTXCDJ7-44" value="" style="ellipse;whiteSpace=wrap;html=1;aspect=fixed;" vertex="1" parent="WIyWlLk6GJQsqaUBKTNV-1">
          <mxGeometry x="-251.5" y="842.5" width="15" height="15" as="geometry" />
        </mxCell>
        <mxCell id="erDt9PumL7C5PBTXCDJ7-169" style="edgeStyle=orthogonalEdgeStyle;rounded=0;orthogonalLoop=1;jettySize=auto;html=1;entryX=0;entryY=0.5;entryDx=0;entryDy=0;" edge="1" parent="WIyWlLk6GJQsqaUBKTNV-1" source="erDt9PumL7C5PBTXCDJ7-47" target="erDt9PumL7C5PBTXCDJ7-167">
          <mxGeometry relative="1" as="geometry" />
        </mxCell>
        <mxCell id="erDt9PumL7C5PBTXCDJ7-47" value="log_syserr(&quot;semget&quot;)" style="rounded=1;whiteSpace=wrap;html=1;" vertex="1" parent="WIyWlLk6GJQsqaUBKTNV-1">
          <mxGeometry x="-540" y="1032.5" width="110" height="40" as="geometry" />
        </mxCell>
        <mxCell id="erDt9PumL7C5PBTXCDJ7-48" style="edgeStyle=orthogonalEdgeStyle;rounded=0;orthogonalLoop=1;jettySize=auto;html=1;entryX=0;entryY=0.5;entryDx=0;entryDy=0;" edge="1" parent="WIyWlLk6GJQsqaUBKTNV-1" source="erDt9PumL7C5PBTXCDJ7-49" target="erDt9PumL7C5PBTXCDJ7-50">
          <mxGeometry relative="1" as="geometry" />
        </mxCell>
        <mxCell id="erDt9PumL7C5PBTXCDJ7-49" value="ret error" style="rounded=1;whiteSpace=wrap;html=1;" vertex="1" parent="WIyWlLk6GJQsqaUBKTNV-1">
          <mxGeometry x="-110" y="1032.5" width="60" height="40" as="geometry" />
        </mxCell>
        <mxCell id="erDt9PumL7C5PBTXCDJ7-50" value="" style="ellipse;whiteSpace=wrap;html=1;aspect=fixed;" vertex="1" parent="WIyWlLk6GJQsqaUBKTNV-1">
          <mxGeometry x="-30" y="1045" width="15" height="15" as="geometry" />
        </mxCell>
        <mxCell id="erDt9PumL7C5PBTXCDJ7-75" value="" style="group" vertex="1" connectable="0" parent="WIyWlLk6GJQsqaUBKTNV-1">
          <mxGeometry x="-750" y="1280" width="440" height="370" as="geometry" />
        </mxCell>
        <mxCell id="erDt9PumL7C5PBTXCDJ7-74" value="" style="rounded=1;whiteSpace=wrap;html=1;dashed=1;dashPattern=8 8;fillColor=none;" vertex="1" parent="erDt9PumL7C5PBTXCDJ7-75">
          <mxGeometry width="440" height="370" as="geometry" />
        </mxCell>
        <mxCell id="erDt9PumL7C5PBTXCDJ7-53" value="shmctl(IPC_STAT)" style="rounded=1;whiteSpace=wrap;html=1;" vertex="1" parent="erDt9PumL7C5PBTXCDJ7-75">
          <mxGeometry x="160" y="50" width="110" height="40" as="geometry" />
        </mxCell>
        <mxCell id="erDt9PumL7C5PBTXCDJ7-54" value="ret ?" style="rhombus;whiteSpace=wrap;html=1;" vertex="1" parent="erDt9PumL7C5PBTXCDJ7-75">
          <mxGeometry x="175" y="120" width="80" height="80" as="geometry" />
        </mxCell>
        <mxCell id="erDt9PumL7C5PBTXCDJ7-61" style="edgeStyle=orthogonalEdgeStyle;rounded=0;orthogonalLoop=1;jettySize=auto;html=1;" edge="1" parent="erDt9PumL7C5PBTXCDJ7-75" source="erDt9PumL7C5PBTXCDJ7-53" target="erDt9PumL7C5PBTXCDJ7-54">
          <mxGeometry relative="1" as="geometry" />
        </mxCell>
        <mxCell id="erDt9PumL7C5PBTXCDJ7-56" value="perror" style="rounded=1;whiteSpace=wrap;html=1;" vertex="1" parent="erDt9PumL7C5PBTXCDJ7-75">
          <mxGeometry x="297" y="210" width="110" height="40" as="geometry" />
        </mxCell>
        <mxCell id="erDt9PumL7C5PBTXCDJ7-60" style="edgeStyle=orthogonalEdgeStyle;rounded=0;orthogonalLoop=1;jettySize=auto;html=1;" edge="1" parent="erDt9PumL7C5PBTXCDJ7-75" source="erDt9PumL7C5PBTXCDJ7-54" target="erDt9PumL7C5PBTXCDJ7-56">
          <mxGeometry relative="1" as="geometry" />
        </mxCell>
        <mxCell id="erDt9PumL7C5PBTXCDJ7-65" value="return ret" style="rounded=1;whiteSpace=wrap;html=1;" vertex="1" parent="erDt9PumL7C5PBTXCDJ7-75">
          <mxGeometry x="160" y="240" width="110" height="40" as="geometry" />
        </mxCell>
        <mxCell id="erDt9PumL7C5PBTXCDJ7-69" style="edgeStyle=orthogonalEdgeStyle;rounded=0;orthogonalLoop=1;jettySize=auto;html=1;" edge="1" parent="erDt9PumL7C5PBTXCDJ7-75" source="erDt9PumL7C5PBTXCDJ7-54" target="erDt9PumL7C5PBTXCDJ7-65">
          <mxGeometry relative="1" as="geometry" />
        </mxCell>
        <mxCell id="erDt9PumL7C5PBTXCDJ7-70" style="edgeStyle=orthogonalEdgeStyle;rounded=0;orthogonalLoop=1;jettySize=auto;html=1;entryX=1;entryY=0.75;entryDx=0;entryDy=0;" edge="1" parent="erDt9PumL7C5PBTXCDJ7-75" source="erDt9PumL7C5PBTXCDJ7-56" target="erDt9PumL7C5PBTXCDJ7-65">
          <mxGeometry relative="1" as="geometry">
            <Array as="points">
              <mxPoint x="360" y="270" />
            </Array>
          </mxGeometry>
        </mxCell>
        <mxCell id="erDt9PumL7C5PBTXCDJ7-66" value="" style="ellipse;whiteSpace=wrap;html=1;aspect=fixed;" vertex="1" parent="erDt9PumL7C5PBTXCDJ7-75">
          <mxGeometry x="207.5" y="320" width="15" height="15" as="geometry" />
        </mxCell>
        <mxCell id="erDt9PumL7C5PBTXCDJ7-68" style="edgeStyle=orthogonalEdgeStyle;rounded=0;orthogonalLoop=1;jettySize=auto;html=1;entryX=0.5;entryY=0;entryDx=0;entryDy=0;" edge="1" parent="erDt9PumL7C5PBTXCDJ7-75" source="erDt9PumL7C5PBTXCDJ7-65" target="erDt9PumL7C5PBTXCDJ7-66">
          <mxGeometry relative="1" as="geometry" />
        </mxCell>
        <mxCell id="erDt9PumL7C5PBTXCDJ7-71" value="ERROR" style="text;strokeColor=none;align=center;fillColor=none;html=1;verticalAlign=middle;whiteSpace=wrap;rounded=0;" vertex="1" parent="erDt9PumL7C5PBTXCDJ7-75">
          <mxGeometry x="270" y="120" width="60" height="30" as="geometry" />
        </mxCell>
        <mxCell id="erDt9PumL7C5PBTXCDJ7-72" value="SUCCESS" style="text;strokeColor=none;align=center;fillColor=none;html=1;verticalAlign=middle;whiteSpace=wrap;rounded=0;" vertex="1" parent="erDt9PumL7C5PBTXCDJ7-75">
          <mxGeometry x="130" y="200" width="60" height="30" as="geometry" />
        </mxCell>
        <mxCell id="erDt9PumL7C5PBTXCDJ7-73" value="get_shm_nattch()" style="text;strokeColor=none;align=center;fillColor=none;html=1;verticalAlign=middle;whiteSpace=wrap;rounded=0;fontStyle=1" vertex="1" parent="erDt9PumL7C5PBTXCDJ7-75">
          <mxGeometry x="60" y="80" width="60" height="30" as="geometry" />
        </mxCell>
        <mxCell id="erDt9PumL7C5PBTXCDJ7-52" value="clean_shm(nb attch)" style="text;strokeColor=none;align=center;fillColor=none;html=1;verticalAlign=middle;whiteSpace=wrap;rounded=0;fontStyle=1" vertex="1" parent="WIyWlLk6GJQsqaUBKTNV-1">
          <mxGeometry x="-441.5" y="1739" width="150" height="30" as="geometry" />
        </mxCell>
        <mxCell id="erDt9PumL7C5PBTXCDJ7-76" value="shmctl(IPC_RMID)" style="rounded=1;whiteSpace=wrap;html=1;" vertex="1" parent="WIyWlLk6GJQsqaUBKTNV-1">
          <mxGeometry x="-571.5" y="1810" width="120" height="40" as="geometry" />
        </mxCell>
        <mxCell id="erDt9PumL7C5PBTXCDJ7-80" style="edgeStyle=orthogonalEdgeStyle;rounded=0;orthogonalLoop=1;jettySize=auto;html=1;" edge="1" parent="WIyWlLk6GJQsqaUBKTNV-1" source="erDt9PumL7C5PBTXCDJ7-79" target="erDt9PumL7C5PBTXCDJ7-76">
          <mxGeometry relative="1" as="geometry" />
        </mxCell>
        <mxCell id="erDt9PumL7C5PBTXCDJ7-79" value="nb attch == 1 ?" style="rhombus;whiteSpace=wrap;html=1;direction=south;" vertex="1" parent="WIyWlLk6GJQsqaUBKTNV-1">
          <mxGeometry x="-721.5" y="1680" width="80" height="80" as="geometry" />
        </mxCell>
        <mxCell id="erDt9PumL7C5PBTXCDJ7-82" value="shmdt(shmaddr)" style="rounded=1;whiteSpace=wrap;html=1;" vertex="1" parent="WIyWlLk6GJQsqaUBKTNV-1">
          <mxGeometry x="-741.5" y="1810" width="120" height="40" as="geometry" />
        </mxCell>
        <mxCell id="erDt9PumL7C5PBTXCDJ7-81" style="edgeStyle=orthogonalEdgeStyle;rounded=0;orthogonalLoop=1;jettySize=auto;html=1;entryX=0.5;entryY=0;entryDx=0;entryDy=0;" edge="1" parent="WIyWlLk6GJQsqaUBKTNV-1" source="erDt9PumL7C5PBTXCDJ7-79" target="erDt9PumL7C5PBTXCDJ7-82">
          <mxGeometry relative="1" as="geometry">
            <mxPoint x="-681.5" y="1870" as="targetPoint" />
          </mxGeometry>
        </mxCell>
        <mxCell id="erDt9PumL7C5PBTXCDJ7-86" value="ret func ?" style="rhombus;whiteSpace=wrap;html=1;fillColor=none;" vertex="1" parent="WIyWlLk6GJQsqaUBKTNV-1">
          <mxGeometry x="-641.5" y="1910" width="80" height="80" as="geometry" />
        </mxCell>
        <mxCell id="erDt9PumL7C5PBTXCDJ7-88" style="edgeStyle=orthogonalEdgeStyle;rounded=0;orthogonalLoop=1;jettySize=auto;html=1;" edge="1" parent="WIyWlLk6GJQsqaUBKTNV-1" source="erDt9PumL7C5PBTXCDJ7-76" target="erDt9PumL7C5PBTXCDJ7-86">
          <mxGeometry relative="1" as="geometry" />
        </mxCell>
        <mxCell id="erDt9PumL7C5PBTXCDJ7-87" style="edgeStyle=orthogonalEdgeStyle;rounded=0;orthogonalLoop=1;jettySize=auto;html=1;" edge="1" parent="WIyWlLk6GJQsqaUBKTNV-1" source="erDt9PumL7C5PBTXCDJ7-82" target="erDt9PumL7C5PBTXCDJ7-86">
          <mxGeometry relative="1" as="geometry" />
        </mxCell>
        <mxCell id="erDt9PumL7C5PBTXCDJ7-90" value="perror(&quot;func_name&quot;)" style="rounded=1;whiteSpace=wrap;html=1;" vertex="1" parent="WIyWlLk6GJQsqaUBKTNV-1">
          <mxGeometry x="-521.5" y="1930" width="120" height="40" as="geometry" />
        </mxCell>
        <mxCell id="erDt9PumL7C5PBTXCDJ7-91" style="edgeStyle=orthogonalEdgeStyle;rounded=0;orthogonalLoop=1;jettySize=auto;html=1;" edge="1" parent="WIyWlLk6GJQsqaUBKTNV-1" source="erDt9PumL7C5PBTXCDJ7-86" target="erDt9PumL7C5PBTXCDJ7-90">
          <mxGeometry relative="1" as="geometry" />
        </mxCell>
        <mxCell id="erDt9PumL7C5PBTXCDJ7-93" value="ret error" style="rounded=1;whiteSpace=wrap;html=1;" vertex="1" parent="WIyWlLk6GJQsqaUBKTNV-1">
          <mxGeometry x="-357.5" y="1930" width="120" height="40" as="geometry" />
        </mxCell>
        <mxCell id="erDt9PumL7C5PBTXCDJ7-94" style="edgeStyle=orthogonalEdgeStyle;rounded=0;orthogonalLoop=1;jettySize=auto;html=1;" edge="1" parent="WIyWlLk6GJQsqaUBKTNV-1" source="erDt9PumL7C5PBTXCDJ7-90" target="erDt9PumL7C5PBTXCDJ7-93">
          <mxGeometry relative="1" as="geometry" />
        </mxCell>
        <mxCell id="erDt9PumL7C5PBTXCDJ7-95" value="" style="ellipse;whiteSpace=wrap;html=1;aspect=fixed;" vertex="1" parent="WIyWlLk6GJQsqaUBKTNV-1">
          <mxGeometry x="-191.5" y="1942.5" width="15" height="15" as="geometry" />
        </mxCell>
        <mxCell id="erDt9PumL7C5PBTXCDJ7-99" style="edgeStyle=orthogonalEdgeStyle;rounded=0;orthogonalLoop=1;jettySize=auto;html=1;entryX=0;entryY=0.5;entryDx=0;entryDy=0;" edge="1" parent="WIyWlLk6GJQsqaUBKTNV-1" source="erDt9PumL7C5PBTXCDJ7-93" target="erDt9PumL7C5PBTXCDJ7-95">
          <mxGeometry relative="1" as="geometry" />
        </mxCell>
        <mxCell id="erDt9PumL7C5PBTXCDJ7-100" value="log succes destroy/detach" style="rounded=1;whiteSpace=wrap;html=1;" vertex="1" parent="WIyWlLk6GJQsqaUBKTNV-1">
          <mxGeometry x="-661.5" y="2020" width="120" height="40" as="geometry" />
        </mxCell>
        <mxCell id="erDt9PumL7C5PBTXCDJ7-101" style="edgeStyle=orthogonalEdgeStyle;rounded=0;orthogonalLoop=1;jettySize=auto;html=1;" edge="1" parent="WIyWlLk6GJQsqaUBKTNV-1" source="erDt9PumL7C5PBTXCDJ7-86" target="erDt9PumL7C5PBTXCDJ7-100">
          <mxGeometry relative="1" as="geometry" />
        </mxCell>
        <mxCell id="erDt9PumL7C5PBTXCDJ7-102" value="ret success" style="rounded=1;whiteSpace=wrap;html=1;" vertex="1" parent="WIyWlLk6GJQsqaUBKTNV-1">
          <mxGeometry x="-661.5" y="2090" width="120" height="40" as="geometry" />
        </mxCell>
        <mxCell id="erDt9PumL7C5PBTXCDJ7-103" style="edgeStyle=orthogonalEdgeStyle;rounded=0;orthogonalLoop=1;jettySize=auto;html=1;" edge="1" parent="WIyWlLk6GJQsqaUBKTNV-1" source="erDt9PumL7C5PBTXCDJ7-100" target="erDt9PumL7C5PBTXCDJ7-102">
          <mxGeometry relative="1" as="geometry" />
        </mxCell>
        <mxCell id="erDt9PumL7C5PBTXCDJ7-104" value="" style="ellipse;whiteSpace=wrap;html=1;aspect=fixed;" vertex="1" parent="WIyWlLk6GJQsqaUBKTNV-1">
          <mxGeometry x="-609" y="2160" width="15" height="15" as="geometry" />
        </mxCell>
        <mxCell id="erDt9PumL7C5PBTXCDJ7-107" style="edgeStyle=orthogonalEdgeStyle;rounded=0;orthogonalLoop=1;jettySize=auto;html=1;entryX=0.5;entryY=0;entryDx=0;entryDy=0;" edge="1" parent="WIyWlLk6GJQsqaUBKTNV-1" source="erDt9PumL7C5PBTXCDJ7-102" target="erDt9PumL7C5PBTXCDJ7-104">
          <mxGeometry relative="1" as="geometry" />
        </mxCell>
        <mxCell id="erDt9PumL7C5PBTXCDJ7-111" value="" style="rounded=1;whiteSpace=wrap;html=1;fillColor=none;dashed=1;container=1;dashPattern=8 8;" vertex="1" parent="WIyWlLk6GJQsqaUBKTNV-1">
          <mxGeometry x="-765.75" y="2240" width="673.5" height="520" as="geometry">
            <mxRectangle x="-760" y="1670" width="50" height="40" as="alternateBounds" />
          </mxGeometry>
        </mxCell>
        <mxCell id="erDt9PumL7C5PBTXCDJ7-115" value="nb attch == 1 ?" style="rhombus;whiteSpace=wrap;html=1;direction=south;" vertex="1" parent="erDt9PumL7C5PBTXCDJ7-111">
          <mxGeometry x="125.75" y="18" width="80" height="80" as="geometry" />
        </mxCell>
        <mxCell id="erDt9PumL7C5PBTXCDJ7-118" value="ret func ?" style="rhombus;whiteSpace=wrap;html=1;fillColor=none;" vertex="1" parent="erDt9PumL7C5PBTXCDJ7-111">
          <mxGeometry x="208.5" y="230" width="80" height="80" as="geometry" />
        </mxCell>
        <mxCell id="erDt9PumL7C5PBTXCDJ7-121" value="perror(semctl IPC_RMID)" style="rounded=1;whiteSpace=wrap;html=1;" vertex="1" parent="erDt9PumL7C5PBTXCDJ7-111">
          <mxGeometry x="328.5" y="250" width="120" height="40" as="geometry" />
        </mxCell>
        <mxCell id="erDt9PumL7C5PBTXCDJ7-122" style="edgeStyle=orthogonalEdgeStyle;rounded=0;orthogonalLoop=1;jettySize=auto;html=1;" edge="1" parent="erDt9PumL7C5PBTXCDJ7-111" source="erDt9PumL7C5PBTXCDJ7-118" target="erDt9PumL7C5PBTXCDJ7-121">
          <mxGeometry relative="1" as="geometry" />
        </mxCell>
        <mxCell id="erDt9PumL7C5PBTXCDJ7-123" value="ret error" style="rounded=1;whiteSpace=wrap;html=1;" vertex="1" parent="erDt9PumL7C5PBTXCDJ7-111">
          <mxGeometry x="492.5" y="250" width="120" height="40" as="geometry" />
        </mxCell>
        <mxCell id="erDt9PumL7C5PBTXCDJ7-124" style="edgeStyle=orthogonalEdgeStyle;rounded=0;orthogonalLoop=1;jettySize=auto;html=1;" edge="1" parent="erDt9PumL7C5PBTXCDJ7-111" source="erDt9PumL7C5PBTXCDJ7-121" target="erDt9PumL7C5PBTXCDJ7-123">
          <mxGeometry relative="1" as="geometry" />
        </mxCell>
        <mxCell id="erDt9PumL7C5PBTXCDJ7-125" value="" style="ellipse;whiteSpace=wrap;html=1;aspect=fixed;" vertex="1" parent="erDt9PumL7C5PBTXCDJ7-111">
          <mxGeometry x="658.5" y="262.5" width="15" height="15" as="geometry" />
        </mxCell>
        <mxCell id="erDt9PumL7C5PBTXCDJ7-126" style="edgeStyle=orthogonalEdgeStyle;rounded=0;orthogonalLoop=1;jettySize=auto;html=1;entryX=0;entryY=0.5;entryDx=0;entryDy=0;" edge="1" parent="erDt9PumL7C5PBTXCDJ7-111" source="erDt9PumL7C5PBTXCDJ7-123" target="erDt9PumL7C5PBTXCDJ7-125">
          <mxGeometry relative="1" as="geometry" />
        </mxCell>
        <mxCell id="erDt9PumL7C5PBTXCDJ7-127" value="log succes destroy" style="rounded=1;whiteSpace=wrap;html=1;" vertex="1" parent="erDt9PumL7C5PBTXCDJ7-111">
          <mxGeometry x="188.5" y="340" width="120" height="40" as="geometry" />
        </mxCell>
        <mxCell id="erDt9PumL7C5PBTXCDJ7-128" style="edgeStyle=orthogonalEdgeStyle;rounded=0;orthogonalLoop=1;jettySize=auto;html=1;" edge="1" parent="erDt9PumL7C5PBTXCDJ7-111" source="erDt9PumL7C5PBTXCDJ7-118" target="erDt9PumL7C5PBTXCDJ7-127">
          <mxGeometry relative="1" as="geometry" />
        </mxCell>
        <mxCell id="erDt9PumL7C5PBTXCDJ7-129" value="ret success (1)" style="rounded=1;whiteSpace=wrap;html=1;" vertex="1" parent="erDt9PumL7C5PBTXCDJ7-111">
          <mxGeometry x="188.5" y="410" width="120" height="40" as="geometry" />
        </mxCell>
        <mxCell id="erDt9PumL7C5PBTXCDJ7-130" style="edgeStyle=orthogonalEdgeStyle;rounded=0;orthogonalLoop=1;jettySize=auto;html=1;" edge="1" parent="erDt9PumL7C5PBTXCDJ7-111" source="erDt9PumL7C5PBTXCDJ7-127" target="erDt9PumL7C5PBTXCDJ7-129">
          <mxGeometry relative="1" as="geometry" />
        </mxCell>
        <mxCell id="erDt9PumL7C5PBTXCDJ7-131" value="" style="ellipse;whiteSpace=wrap;html=1;aspect=fixed;" vertex="1" parent="erDt9PumL7C5PBTXCDJ7-111">
          <mxGeometry x="241" y="480" width="15" height="15" as="geometry" />
        </mxCell>
        <mxCell id="erDt9PumL7C5PBTXCDJ7-132" style="edgeStyle=orthogonalEdgeStyle;rounded=0;orthogonalLoop=1;jettySize=auto;html=1;entryX=0.5;entryY=0;entryDx=0;entryDy=0;" edge="1" parent="erDt9PumL7C5PBTXCDJ7-111" source="erDt9PumL7C5PBTXCDJ7-129" target="erDt9PumL7C5PBTXCDJ7-131">
          <mxGeometry relative="1" as="geometry" />
        </mxCell>
        <mxCell id="erDt9PumL7C5PBTXCDJ7-138" value="" style="ellipse;whiteSpace=wrap;html=1;aspect=fixed;" vertex="1" parent="erDt9PumL7C5PBTXCDJ7-111">
          <mxGeometry x="65.75" y="215" width="15" height="15" as="geometry" />
        </mxCell>
        <mxCell id="erDt9PumL7C5PBTXCDJ7-158" value="YES" style="text;strokeColor=none;align=center;fillColor=none;html=1;verticalAlign=middle;whiteSpace=wrap;rounded=0;" vertex="1" parent="erDt9PumL7C5PBTXCDJ7-111">
          <mxGeometry x="196" y="90" width="60" height="30" as="geometry" />
        </mxCell>
        <mxCell id="erDt9PumL7C5PBTXCDJ7-159" value="NO" style="text;strokeColor=none;align=center;fillColor=none;html=1;verticalAlign=middle;whiteSpace=wrap;rounded=0;" vertex="1" parent="erDt9PumL7C5PBTXCDJ7-111">
          <mxGeometry x="65.75" y="90" width="60" height="30" as="geometry" />
        </mxCell>
        <mxCell id="erDt9PumL7C5PBTXCDJ7-160" value="ERROR" style="text;strokeColor=none;align=center;fillColor=none;html=1;verticalAlign=middle;whiteSpace=wrap;rounded=0;" vertex="1" parent="erDt9PumL7C5PBTXCDJ7-111">
          <mxGeometry x="275.75" y="232.5" width="60" height="30" as="geometry" />
        </mxCell>
        <mxCell id="erDt9PumL7C5PBTXCDJ7-161" value="SUCCESS" style="text;strokeColor=none;align=center;fillColor=none;html=1;verticalAlign=middle;whiteSpace=wrap;rounded=0;" vertex="1" parent="erDt9PumL7C5PBTXCDJ7-111">
          <mxGeometry x="188.5" y="300" width="60" height="30" as="geometry" />
        </mxCell>
        <mxCell id="erDt9PumL7C5PBTXCDJ7-112" value="clean_sem(nb attch)" style="text;strokeColor=none;align=center;fillColor=none;html=1;verticalAlign=middle;whiteSpace=wrap;rounded=0;fontStyle=1" vertex="1" parent="WIyWlLk6GJQsqaUBKTNV-1">
          <mxGeometry x="-447.25" y="2309" width="150" height="30" as="geometry" />
        </mxCell>
        <mxCell id="erDt9PumL7C5PBTXCDJ7-113" value="semctl(IPC_RMID)" style="rounded=1;whiteSpace=wrap;html=1;" vertex="1" parent="WIyWlLk6GJQsqaUBKTNV-1">
          <mxGeometry x="-577.25" y="2380" width="120" height="40" as="geometry" />
        </mxCell>
        <mxCell id="erDt9PumL7C5PBTXCDJ7-114" style="edgeStyle=orthogonalEdgeStyle;rounded=0;orthogonalLoop=1;jettySize=auto;html=1;" edge="1" parent="WIyWlLk6GJQsqaUBKTNV-1" source="erDt9PumL7C5PBTXCDJ7-115" target="erDt9PumL7C5PBTXCDJ7-113">
          <mxGeometry relative="1" as="geometry" />
        </mxCell>
        <mxCell id="erDt9PumL7C5PBTXCDJ7-140" style="edgeStyle=orthogonalEdgeStyle;rounded=0;orthogonalLoop=1;jettySize=auto;html=1;entryX=1;entryY=0;entryDx=0;entryDy=0;" edge="1" parent="WIyWlLk6GJQsqaUBKTNV-1" source="erDt9PumL7C5PBTXCDJ7-116" target="erDt9PumL7C5PBTXCDJ7-138">
          <mxGeometry relative="1" as="geometry" />
        </mxCell>
        <mxCell id="erDt9PumL7C5PBTXCDJ7-116" value="ret success (0)" style="rounded=1;whiteSpace=wrap;html=1;" vertex="1" parent="WIyWlLk6GJQsqaUBKTNV-1">
          <mxGeometry x="-747.25" y="2380" width="120" height="40" as="geometry" />
        </mxCell>
        <mxCell id="erDt9PumL7C5PBTXCDJ7-117" style="edgeStyle=orthogonalEdgeStyle;rounded=0;orthogonalLoop=1;jettySize=auto;html=1;entryX=0.5;entryY=0;entryDx=0;entryDy=0;" edge="1" parent="WIyWlLk6GJQsqaUBKTNV-1" source="erDt9PumL7C5PBTXCDJ7-115" target="erDt9PumL7C5PBTXCDJ7-116">
          <mxGeometry relative="1" as="geometry">
            <mxPoint x="-687.25" y="2440" as="targetPoint" />
          </mxGeometry>
        </mxCell>
        <mxCell id="erDt9PumL7C5PBTXCDJ7-119" style="edgeStyle=orthogonalEdgeStyle;rounded=0;orthogonalLoop=1;jettySize=auto;html=1;" edge="1" parent="WIyWlLk6GJQsqaUBKTNV-1" source="erDt9PumL7C5PBTXCDJ7-113" target="erDt9PumL7C5PBTXCDJ7-118">
          <mxGeometry relative="1" as="geometry" />
        </mxCell>
        <mxCell id="erDt9PumL7C5PBTXCDJ7-135" value="init sem with SETVAL" style="rounded=1;whiteSpace=wrap;html=1;" vertex="1" parent="WIyWlLk6GJQsqaUBKTNV-1">
          <mxGeometry x="320" y="160" width="110" height="40" as="geometry" />
        </mxCell>
        <mxCell id="erDt9PumL7C5PBTXCDJ7-166" value="" style="group" vertex="1" connectable="0" parent="WIyWlLk6GJQsqaUBKTNV-1">
          <mxGeometry x="-50" y="1258" width="500" height="495" as="geometry" />
        </mxCell>
        <mxCell id="erDt9PumL7C5PBTXCDJ7-164" value="" style="rounded=1;whiteSpace=wrap;html=1;fillColor=none;dashed=1;dashPattern=8 8;" vertex="1" parent="erDt9PumL7C5PBTXCDJ7-166">
          <mxGeometry width="500" height="495" as="geometry" />
        </mxCell>
        <mxCell id="erDt9PumL7C5PBTXCDJ7-0" value="readlink(&quot;/proc/self/exe&quot;)" style="rounded=1;whiteSpace=wrap;html=1;" vertex="1" parent="erDt9PumL7C5PBTXCDJ7-166">
          <mxGeometry x="39" y="16" width="150" height="40" as="geometry" />
        </mxCell>
        <mxCell id="erDt9PumL7C5PBTXCDJ7-1" value="ret readink ?" style="rhombus;whiteSpace=wrap;html=1;" vertex="1" parent="erDt9PumL7C5PBTXCDJ7-166">
          <mxGeometry x="74" y="95" width="80" height="80" as="geometry" />
        </mxCell>
        <mxCell id="erDt9PumL7C5PBTXCDJ7-8" style="edgeStyle=orthogonalEdgeStyle;rounded=0;orthogonalLoop=1;jettySize=auto;html=1;" edge="1" parent="erDt9PumL7C5PBTXCDJ7-166" source="erDt9PumL7C5PBTXCDJ7-0" target="erDt9PumL7C5PBTXCDJ7-1">
          <mxGeometry relative="1" as="geometry" />
        </mxCell>
        <mxCell id="erDt9PumL7C5PBTXCDJ7-2" value="perror(&quot;readlink&quot;)" style="rounded=1;whiteSpace=wrap;html=1;" vertex="1" parent="erDt9PumL7C5PBTXCDJ7-166">
          <mxGeometry x="210" y="115" width="110" height="40" as="geometry" />
        </mxCell>
        <mxCell id="erDt9PumL7C5PBTXCDJ7-7" style="edgeStyle=orthogonalEdgeStyle;rounded=0;orthogonalLoop=1;jettySize=auto;html=1;" edge="1" parent="erDt9PumL7C5PBTXCDJ7-166" source="erDt9PumL7C5PBTXCDJ7-1" target="erDt9PumL7C5PBTXCDJ7-2">
          <mxGeometry relative="1" as="geometry" />
        </mxCell>
        <mxCell id="erDt9PumL7C5PBTXCDJ7-3" value="ret error" style="rounded=1;whiteSpace=wrap;html=1;" vertex="1" parent="erDt9PumL7C5PBTXCDJ7-166">
          <mxGeometry x="360" y="115" width="60" height="40" as="geometry" />
        </mxCell>
        <mxCell id="erDt9PumL7C5PBTXCDJ7-6" style="edgeStyle=orthogonalEdgeStyle;rounded=0;orthogonalLoop=1;jettySize=auto;html=1;" edge="1" parent="erDt9PumL7C5PBTXCDJ7-166" source="erDt9PumL7C5PBTXCDJ7-2" target="erDt9PumL7C5PBTXCDJ7-3">
          <mxGeometry relative="1" as="geometry" />
        </mxCell>
        <mxCell id="erDt9PumL7C5PBTXCDJ7-4" value="" style="ellipse;whiteSpace=wrap;html=1;aspect=fixed;" vertex="1" parent="erDt9PumL7C5PBTXCDJ7-166">
          <mxGeometry x="470" y="127.5" width="15" height="15" as="geometry" />
        </mxCell>
        <mxCell id="erDt9PumL7C5PBTXCDJ7-5" style="edgeStyle=orthogonalEdgeStyle;rounded=0;orthogonalLoop=1;jettySize=auto;html=1;entryX=0;entryY=0.5;entryDx=0;entryDy=0;" edge="1" parent="erDt9PumL7C5PBTXCDJ7-166" source="erDt9PumL7C5PBTXCDJ7-3" target="erDt9PumL7C5PBTXCDJ7-4">
          <mxGeometry relative="1" as="geometry" />
        </mxCell>
        <mxCell id="erDt9PumL7C5PBTXCDJ7-9" value="key = ftok(exePath, i)" style="rounded=1;whiteSpace=wrap;html=1;" vertex="1" parent="erDt9PumL7C5PBTXCDJ7-166">
          <mxGeometry x="55.5" y="205" width="117" height="40" as="geometry" />
        </mxCell>
        <mxCell id="erDt9PumL7C5PBTXCDJ7-10" style="edgeStyle=orthogonalEdgeStyle;rounded=0;orthogonalLoop=1;jettySize=auto;html=1;" edge="1" parent="erDt9PumL7C5PBTXCDJ7-166" source="erDt9PumL7C5PBTXCDJ7-1" target="erDt9PumL7C5PBTXCDJ7-9">
          <mxGeometry relative="1" as="geometry" />
        </mxCell>
        <mxCell id="erDt9PumL7C5PBTXCDJ7-12" value="perror(&quot;ftok&quot;)" style="rounded=1;whiteSpace=wrap;html=1;" vertex="1" parent="erDt9PumL7C5PBTXCDJ7-166">
          <mxGeometry x="210" y="295" width="110" height="40" as="geometry" />
        </mxCell>
        <mxCell id="erDt9PumL7C5PBTXCDJ7-14" value="ret error" style="rounded=1;whiteSpace=wrap;html=1;" vertex="1" parent="erDt9PumL7C5PBTXCDJ7-166">
          <mxGeometry x="360" y="295" width="60" height="40" as="geometry" />
        </mxCell>
        <mxCell id="erDt9PumL7C5PBTXCDJ7-11" style="edgeStyle=orthogonalEdgeStyle;rounded=0;orthogonalLoop=1;jettySize=auto;html=1;" edge="1" parent="erDt9PumL7C5PBTXCDJ7-166" source="erDt9PumL7C5PBTXCDJ7-12" target="erDt9PumL7C5PBTXCDJ7-14">
          <mxGeometry relative="1" as="geometry" />
        </mxCell>
        <mxCell id="erDt9PumL7C5PBTXCDJ7-15" value="" style="ellipse;whiteSpace=wrap;html=1;aspect=fixed;" vertex="1" parent="erDt9PumL7C5PBTXCDJ7-166">
          <mxGeometry x="470" y="307.5" width="15" height="15" as="geometry" />
        </mxCell>
        <mxCell id="erDt9PumL7C5PBTXCDJ7-13" style="edgeStyle=orthogonalEdgeStyle;rounded=0;orthogonalLoop=1;jettySize=auto;html=1;entryX=0;entryY=0.5;entryDx=0;entryDy=0;" edge="1" parent="erDt9PumL7C5PBTXCDJ7-166" source="erDt9PumL7C5PBTXCDJ7-14" target="erDt9PumL7C5PBTXCDJ7-15">
          <mxGeometry relative="1" as="geometry" />
        </mxCell>
        <mxCell id="erDt9PumL7C5PBTXCDJ7-17" value="return key" style="rounded=1;whiteSpace=wrap;html=1;" vertex="1" parent="erDt9PumL7C5PBTXCDJ7-166">
          <mxGeometry x="74" y="395" width="80" height="40" as="geometry" />
        </mxCell>
        <mxCell id="erDt9PumL7C5PBTXCDJ7-20" style="edgeStyle=orthogonalEdgeStyle;rounded=0;orthogonalLoop=1;jettySize=auto;html=1;" edge="1" parent="erDt9PumL7C5PBTXCDJ7-166" source="erDt9PumL7C5PBTXCDJ7-18" target="erDt9PumL7C5PBTXCDJ7-12">
          <mxGeometry relative="1" as="geometry" />
        </mxCell>
        <mxCell id="erDt9PumL7C5PBTXCDJ7-21" style="edgeStyle=orthogonalEdgeStyle;rounded=0;orthogonalLoop=1;jettySize=auto;html=1;entryX=0.5;entryY=0;entryDx=0;entryDy=0;" edge="1" parent="erDt9PumL7C5PBTXCDJ7-166" source="erDt9PumL7C5PBTXCDJ7-18" target="erDt9PumL7C5PBTXCDJ7-17">
          <mxGeometry relative="1" as="geometry" />
        </mxCell>
        <mxCell id="erDt9PumL7C5PBTXCDJ7-18" value="ret ftok ?" style="rhombus;whiteSpace=wrap;html=1;" vertex="1" parent="erDt9PumL7C5PBTXCDJ7-166">
          <mxGeometry x="74" y="275" width="80" height="80" as="geometry" />
        </mxCell>
        <mxCell id="erDt9PumL7C5PBTXCDJ7-19" style="edgeStyle=orthogonalEdgeStyle;rounded=0;orthogonalLoop=1;jettySize=auto;html=1;" edge="1" parent="erDt9PumL7C5PBTXCDJ7-166" source="erDt9PumL7C5PBTXCDJ7-9" target="erDt9PumL7C5PBTXCDJ7-18">
          <mxGeometry relative="1" as="geometry" />
        </mxCell>
        <mxCell id="erDt9PumL7C5PBTXCDJ7-22" value="ERROR" style="text;strokeColor=none;align=center;fillColor=none;html=1;verticalAlign=middle;whiteSpace=wrap;rounded=0;" vertex="1" parent="erDt9PumL7C5PBTXCDJ7-166">
          <mxGeometry x="150" y="97.5" width="60" height="30" as="geometry" />
        </mxCell>
        <mxCell id="erDt9PumL7C5PBTXCDJ7-23" value="ERROR" style="text;strokeColor=none;align=center;fillColor=none;html=1;verticalAlign=middle;whiteSpace=wrap;rounded=0;" vertex="1" parent="erDt9PumL7C5PBTXCDJ7-166">
          <mxGeometry x="150" y="292.5" width="60" height="30" as="geometry" />
        </mxCell>
        <mxCell id="erDt9PumL7C5PBTXCDJ7-25" value="OK" style="text;strokeColor=none;align=center;fillColor=none;html=1;verticalAlign=middle;whiteSpace=wrap;rounded=0;" vertex="1" parent="erDt9PumL7C5PBTXCDJ7-166">
          <mxGeometry x="50" y="355" width="60" height="30" as="geometry" />
        </mxCell>
        <mxCell id="erDt9PumL7C5PBTXCDJ7-27" value="OK" style="text;strokeColor=none;align=center;fillColor=none;html=1;verticalAlign=middle;whiteSpace=wrap;rounded=0;" vertex="1" parent="erDt9PumL7C5PBTXCDJ7-166">
          <mxGeometry x="50" y="165" width="60" height="30" as="geometry" />
        </mxCell>
        <mxCell id="erDt9PumL7C5PBTXCDJ7-28" value="" style="ellipse;whiteSpace=wrap;html=1;aspect=fixed;" vertex="1" parent="erDt9PumL7C5PBTXCDJ7-166">
          <mxGeometry x="106.5" y="465" width="15" height="15" as="geometry" />
        </mxCell>
        <mxCell id="erDt9PumL7C5PBTXCDJ7-31" style="edgeStyle=orthogonalEdgeStyle;rounded=0;orthogonalLoop=1;jettySize=auto;html=1;entryX=0.5;entryY=0;entryDx=0;entryDy=0;" edge="1" parent="erDt9PumL7C5PBTXCDJ7-166" source="erDt9PumL7C5PBTXCDJ7-17" target="erDt9PumL7C5PBTXCDJ7-28">
          <mxGeometry relative="1" as="geometry" />
        </mxCell>
        <mxCell id="erDt9PumL7C5PBTXCDJ7-32" value="KEYGEN" style="text;strokeColor=none;align=center;fillColor=none;html=1;verticalAlign=middle;whiteSpace=wrap;rounded=0;fontStyle=1" vertex="1" parent="erDt9PumL7C5PBTXCDJ7-166">
          <mxGeometry x="230" y="45" width="60" height="30" as="geometry" />
        </mxCell>
        <mxCell id="erDt9PumL7C5PBTXCDJ7-170" style="edgeStyle=orthogonalEdgeStyle;rounded=0;orthogonalLoop=1;jettySize=auto;html=1;" edge="1" parent="WIyWlLk6GJQsqaUBKTNV-1" source="erDt9PumL7C5PBTXCDJ7-167" target="erDt9PumL7C5PBTXCDJ7-168">
          <mxGeometry relative="1" as="geometry" />
        </mxCell>
        <mxCell id="erDt9PumL7C5PBTXCDJ7-167" value="nattch = get_shm_nattch()" style="rounded=1;whiteSpace=wrap;html=1;" vertex="1" parent="WIyWlLk6GJQsqaUBKTNV-1">
          <mxGeometry x="-396.5" y="1032.5" width="110" height="40" as="geometry" />
        </mxCell>
        <mxCell id="erDt9PumL7C5PBTXCDJ7-171" style="edgeStyle=orthogonalEdgeStyle;rounded=0;orthogonalLoop=1;jettySize=auto;html=1;" edge="1" parent="WIyWlLk6GJQsqaUBKTNV-1" source="erDt9PumL7C5PBTXCDJ7-168" target="erDt9PumL7C5PBTXCDJ7-49">
          <mxGeometry relative="1" as="geometry" />
        </mxCell>
        <mxCell id="erDt9PumL7C5PBTXCDJ7-168" value="clean_shm(nattch)" style="rounded=1;whiteSpace=wrap;html=1;" vertex="1" parent="WIyWlLk6GJQsqaUBKTNV-1">
          <mxGeometry x="-246.5" y="1032.5" width="110" height="40" as="geometry" />
        </mxCell>
        <mxCell id="erDt9PumL7C5PBTXCDJ7-173" value="SUCCESS" style="text;strokeColor=none;align=center;fillColor=none;html=1;verticalAlign=middle;whiteSpace=wrap;rounded=0;" vertex="1" parent="WIyWlLk6GJQsqaUBKTNV-1">
          <mxGeometry x="-691.5" y="890" width="60" height="30" as="geometry" />
        </mxCell>
        <mxCell id="erDt9PumL7C5PBTXCDJ7-174" value="ERROR" style="text;strokeColor=none;align=center;fillColor=none;html=1;verticalAlign=middle;whiteSpace=wrap;rounded=0;" vertex="1" parent="WIyWlLk6GJQsqaUBKTNV-1">
          <mxGeometry x="-607.25" y="812.5" width="60" height="30" as="geometry" />
        </mxCell>
        <mxCell id="erDt9PumL7C5PBTXCDJ7-175" value="ERROR" style="text;strokeColor=none;align=center;fillColor=none;html=1;verticalAlign=middle;whiteSpace=wrap;rounded=0;" vertex="1" parent="WIyWlLk6GJQsqaUBKTNV-1">
          <mxGeometry x="-600" y="1012.5" width="60" height="30" as="geometry" />
        </mxCell>
        <mxCell id="erDt9PumL7C5PBTXCDJ7-177" value="SUCCESS" style="text;strokeColor=none;align=center;fillColor=none;html=1;verticalAlign=middle;whiteSpace=wrap;rounded=0;" vertex="1" parent="WIyWlLk6GJQsqaUBKTNV-1">
          <mxGeometry x="-714" y="1082.5" width="60" height="30" as="geometry" />
        </mxCell>
        <mxCell id="erDt9PumL7C5PBTXCDJ7-194" value="" style="rounded=1;whiteSpace=wrap;html=1;dashed=1;dashPattern=8 8;fillColor=none;" vertex="1" parent="WIyWlLk6GJQsqaUBKTNV-1">
          <mxGeometry x="-721.5" y="690" width="714" height="482.5" as="geometry" />
        </mxCell>
      </root>
    </mxGraphModel>
  </diagram>
</mxfile>
